# xmcd
#
# Track frame offsets:
#	150
#	29083
#	59110
#	98693
#	124217
#	156660
#	193378
#	220135
#
# Disc length: 3253 seconds
#
# Revision: 0
# Processed by: cddbd v1.4PL0 Copyright (c) Steve Scherf et al.
# Submitted via: audiograbber 1.80
#
DISCID=820cb308
DTITLE=Dan Gibson Solitudes - Grand Canyon
DYEAR=1900
DGENRE=
TTITLE0=Majesty at sunrise
TTITLE1=The mist clears
TTITLE2=Remembrance
TTITLE3=Forgotten melody
TTITLE4=The wish
TTITLE5=Chorus of the sun
TTITLE6=Awakened spirits
TTITLE7=Eternity
EXTD=
EXTT0=
EXTT1=
EXTT2=
EXTT3=
EXTT4=
EXTT5=
EXTT6=
EXTT7=
PLAYORDER=
